<?xml version="1.0" standalone="no"?>
<svg viewBox="0 0 200 200" xmlns="http://www.w3.org/2000/svg">
  <path fill="#5B63AD" d="M47.4,-73.8C60.1,-65.7,68,-50.2,74,-34.6C80,-18.9,84,-3.1,82.3,12.2C80.7,27.6,73.5,42.5,63.1,55C52.8,67.6,39.3,77.8,24,83C8.6,88.1,-8.6,88.1,-22.8,82C-36.9,75.8,-47.8,63.4,-59,50.9C-70.2,38.4,-81.7,25.9,-84.3,11.8C-86.9,-2.4,-80.6,-18.2,-72.5,-31.8C-64.3,-45.5,-54.2,-57,-41.8,-65.3C-29.4,-73.6,-14.7,-78.7,1.4,-80.8C17.4,-82.9,34.8,-82,47.4,-73.8Z" transform="translate(100 100)" />
</svg>
